<svg xmlns="http://www.w3.org/2000/svg" viewBox="0 0 22 22" width="22"  height="22">
	<defs id="defs3051">
		<style type="text/css" id="current-color-scheme">
			.ColorScheme-Text {
				color:#4d4d4d;
			}
		</style>
	</defs>
	<path
		d="m 11,3 c -4.42,0 -8,3.5799986 -8,8 0,3.54 2.2907031,6.529844 5.4707031,7.589844 0.4,0.07 0.5488281,-0.17086 0.5488281,-0.38086 0,-0.19 -0.00927,-0.620179 -0.00927,-1.29018 -2.01,0.37 -2.5294531,-0.489453 -2.6894531,-0.939452 -0.09,-0.23 -0.4803125,-1.138726 -0.8203125,-1.328727 -0.28,-0.149999 -0.6797656,-0.521249 -0.00977,-0.53125 0.63,-0.01 1.0804687,0.780132 1.2304687,1.020133 0.72,1.209999 1.8700781,0.870155 2.3300781,0.660156 0.047878,-0.355667 0.1617708,-0.825172 0.3022422,-1.02818 C 7.347713,14.21187 6.00288,12.699423 6,11 6.0024061,10.008215 6.4652921,9.0525122 7.2988281,8.3183594 7.1699666,7.9917183 6.8206264,7.0099575 7.2207031,6.0097656 c 0,0 0.6645587,0.1926616 2.1757813,1.2070313 C 9.9126193,7.0750102 10.454288,7.0017762 11,7 11.531012,7.0009022 12.058454,7.06947 12.5625,7.203125 14.057448,6.1927965 14.720703,6.0097656 14.720703,6.0097656 15.106125,6.9733214 14.79546,7.91487 14.65625,8.2773438 15.518079,9.0164748 15.998172,9.9892222 16,11 c -0.0023,1.690062 -1.332167,3.196578 -3.322266,3.763672 0.191938,0.27561 0.332032,0.684956 0.332032,1.246094 0,1.07 -0.0098,1.929218 -0.0098,2.199218 0,0.21 0.150781,0.46086 0.550781,0.38086 C 16.807227,17.4905 18.999121,14.437004 19,11 19,6.5799986 15.42,3 11,3 Z"
		style="fill:currentColor"
		class="ColorScheme-Text"
	/>
</svg>
